<svg class="svg-icon" style="width: 1em; height: 1em;vertical-align: middle;fill: currentColor;overflow: hidden;" viewBox="0 0 1024 1024" version="1.1" xmlns="http://www.w3.org/2000/svg"><path d="M678.00064 625.664a276.66432 276.66432 0 0 1-138.24 223.52896C407.84896 925.29664 239.52384 880.64 163.84 749.85472c-64.512-111.38048-40.96-249.30304 48.66048-335.19616 0 10.88512 1.83296 36.7616 9.34912 64.45056a221.60384 221.60384 0 0 0-13.48608 242.176c61.0816 106.07616 197.89824 142.12096 305.152 80.20992a224.82944 224.82944 0 0 0 112.31232-179.69152 63.83616 63.83616 0 0 1-1.39264-111.616 63.83616 63.83616 0 1 1 53.52448 115.37408zM355.328 646.51264A276.48 276.48 0 0 1 227.14368 412.8768c0-152.22784 122.2144-275.93728 273.63328-275.93728 128.62464 0 236.544 89.22112 265.7792 209.5616A297.23648 297.23648 0 0 0 706.56 322.88768c-34.816-78.37696-112.82432-133.12-203.15136-133.12-122.94144 0-222.32064 100.44416-222.32064 224.2048a224.72704 224.72704 0 0 0 100.1984 187.392A64.06144 64.06144 0 1 1 355.328 646.47168zM494.51008 350.208a275.85536 275.85536 0 0 1 263.80288 7.168c131.9936 76.45184 177.7152 244.38784 101.9392 375.22432-64.78848 112.05632-197.13024 160.768-316.74368 124.7744a287.05792 287.05792 0 0 0 51.01568-40.07936 222.27968 222.27968 0 0 0 218.90048-109.11744C874.496 602.05056 837.41696 465.62304 730.22464 403.7632a223.8976 223.8976 0 0 0-207.39072-9.39008 64.512 64.512 0 1 1-28.37504-44.22656z m0 0" fill="#1F91F2" /><path d="M459.37664 403.51744m-64.3072 0a64.3072 64.3072 0 1 0 128.6144 0 64.3072 64.3072 0 1 0-128.6144 0Z" fill="#FC7265" /><path d="M418.88768 653.28128m-64.3072 0a64.3072 64.3072 0 1 0 128.6144 0 64.3072 64.3072 0 1 0-128.6144 0Z" fill="#FC7265" /><path d="M655.99488 565.78048m-64.3072 0a64.3072 64.3072 0 1 0 128.6144 0 64.3072 64.3072 0 1 0-128.6144 0Z" fill="#FC7265" /></svg>